<svg xmlns="http://www.w3.org/2000/svg" id="Layer_1" data-name="Layer 1" viewBox="0 0 757 214"><defs><style>.cls-1{fill:#e7594d;}.cls-2{fill:#036;}.cls-3{fill:#fff;opacity:0.18;}</style></defs><path class="cls-1" d="M238,114.25a38.56,38.56,0,0,1-20-5.19,36.78,36.78,0,0,1-13.73-14.29,43,43,0,0,1-5-20.93,43,43,0,0,1,5-20.94,37,37,0,0,1,13.67-14.29,38.31,38.31,0,0,1,20-5.19,37.33,37.33,0,0,1,14.29,2.74,39.26,39.26,0,0,1,11.89,7.53,33.31,33.31,0,0,1,8,11.17l-11.84,4.8a25.78,25.78,0,0,0-5.41-7.54A24.49,24.49,0,0,0,247.05,47a24.89,24.89,0,0,0-22.27,1.9,25.52,25.52,0,0,0-9,10.1,31.92,31.92,0,0,0-3.3,14.8,32.2,32.2,0,0,0,3.3,14.84,25.11,25.11,0,0,0,9.15,10.16,24.5,24.5,0,0,0,13.34,3.69,21.85,21.85,0,0,0,9.21-2,25.42,25.42,0,0,0,7.7-5.41,26.67,26.67,0,0,0,5.42-8l11.83,4.8a36.14,36.14,0,0,1-7.92,11.67,36.65,36.65,0,0,1-12,7.87A37.91,37.91,0,0,1,238,114.25Z"></path><path class="cls-1" d="M304.1,114.25a29.38,29.38,0,0,1-15-3.74A26.75,26.75,0,0,1,279,100.18,30.53,30.53,0,0,1,275.29,85a30.93,30.93,0,0,1,3.63-15.18A26.42,26.42,0,0,1,289,59.49a28.91,28.91,0,0,1,14.73-3.74,29.4,29.4,0,0,1,15,3.74,26.33,26.33,0,0,1,10.1,10.33A30.93,30.93,0,0,1,332.45,85a30.93,30.93,0,0,1-3.63,15.18,26.45,26.45,0,0,1-10,10.33A28.67,28.67,0,0,1,304.1,114.25Zm0-11.5a14.66,14.66,0,0,0,8.2-2.29,15.77,15.77,0,0,0,5.53-6.25,20.09,20.09,0,0,0,2-9.21,20.09,20.09,0,0,0-2-9.21,15.51,15.51,0,0,0-5.64-6.25,15.22,15.22,0,0,0-8.32-2.29,15,15,0,0,0-8.26,2.29A15.66,15.66,0,0,0,290,75.79,20.09,20.09,0,0,0,288,85a19.6,19.6,0,0,0,2.07,9.21,15.84,15.84,0,0,0,5.69,6.25A15.22,15.22,0,0,0,304.1,102.75Z"></path><path class="cls-1" d="M339.15,112.91V57.09h11.72l.78,10.27v45.55ZM377,84.33c0-4.47-.51-7.91-1.51-10.33a9.7,9.7,0,0,0-4.24-5.08,13.63,13.63,0,0,0-6.42-1.45q-6.25-.1-9.72,4.13t-3.46,12.17H347a40.15,40.15,0,0,1,2.56-15.13A20.76,20.76,0,0,1,356.9,59a19.68,19.68,0,0,1,11.39-3.29,22.88,22.88,0,0,1,11.44,2.68A17.29,17.29,0,0,1,387,66.75q2.5,5.64,2.51,14.68v2.9Zm0,28.58V84.33h12.5v28.58Z"></path><path class="cls-1" d="M414.51,112.91,391.4,57.09h12.84l21.88,55.82Zm.89,0,21.77-55.82h12.95l-23,55.82Z"></path><path class="cls-1" d="M477.58,114.25a27.87,27.87,0,0,1-14.46-3.74,26.81,26.81,0,0,1-9.93-10.33A30.93,30.93,0,0,1,449.56,85a30.63,30.63,0,0,1,3.68-15.18,27,27,0,0,1,10.11-10.33A28.65,28.65,0,0,1,478,55.75a24.56,24.56,0,0,1,13.51,3.85,26.52,26.52,0,0,1,9.54,11.11A39.26,39.26,0,0,1,504.6,88H460.72l1.68-1.56a17,17,0,0,0,2.23,8.88,15.41,15.41,0,0,0,5.92,5.75,16.7,16.7,0,0,0,8.15,2,14.74,14.74,0,0,0,8.48-2.28,16,16,0,0,0,5.25-6l11.05,4.69a28.7,28.7,0,0,1-6,7.82,25,25,0,0,1-8.6,5.13A33.38,33.38,0,0,1,477.58,114.25ZM463.18,80l-1.79-1.57h31.49L491.2,80a12.56,12.56,0,0,0-7.09-12,14.44,14.44,0,0,0-6.42-1.5A16.23,16.23,0,0,0,471,68a14.25,14.25,0,0,0-5.59,4.47A12.14,12.14,0,0,0,463.18,80Z"></path><path class="cls-1" d="M510.07,112.91V57.09h12.5v55.82Zm8.26-29.7q0-9,3.46-14.84a22.29,22.29,0,0,1,9-8.66,25,25,0,0,1,11.55-2.84V68.81a32.65,32.65,0,0,0-9.66,1.4,15.84,15.84,0,0,0-7.31,4.52A11.94,11.94,0,0,0,522.57,83Z"></path><path class="cls-1" d="M566.78,114.25a30.23,30.23,0,0,1-10.27-1.68,23.15,23.15,0,0,1-8-4.74,21.05,21.05,0,0,1-5.14-7.2l10.83-4.8a14.38,14.38,0,0,0,5,5.25,13.26,13.26,0,0,0,7.31,2.12,14,14,0,0,0,7-1.51A4.64,4.64,0,0,0,576,97.5a4.53,4.53,0,0,0-2-4,17.3,17.3,0,0,0-5.7-2.29l-5.25-1.45q-7.92-2-12.39-6.42a13.84,13.84,0,0,1-4.46-10.1q0-8.37,5.41-13t15.58-4.58a28.22,28.22,0,0,1,9.43,1.51,22.35,22.35,0,0,1,7.42,4.24,14.5,14.5,0,0,1,4.36,6.42l-10.39,4.69a8.08,8.08,0,0,0-4.24-4.3,15.64,15.64,0,0,0-6.92-1.51A9.58,9.58,0,0,0,561,68.42a5.38,5.38,0,0,0-2.12,4.52,3.87,3.87,0,0,0,1.9,3.07,15.65,15.65,0,0,0,5.47,2.29l6.59,1.56a22.26,22.26,0,0,1,8.93,4.19,18.71,18.71,0,0,1,5.13,6.36,16.33,16.33,0,0,1,1.68,7.09,14.28,14.28,0,0,1-2.85,8.82,18.25,18.25,0,0,1-7.76,5.86A28.47,28.47,0,0,1,566.78,114.25Z"></path><path class="cls-1" d="M601.39,46.48A7.41,7.41,0,0,1,594,39.12,6.92,6.92,0,0,1,596.19,34a7.43,7.43,0,0,1,10.39,0,6.92,6.92,0,0,1,2.17,5.14,7.41,7.41,0,0,1-7.36,7.36Zm-6.26,66.43V57.09h12.4v55.82Z"></path><path class="cls-1" d="M643.81,114.25a29.38,29.38,0,0,1-15-3.74,26.75,26.75,0,0,1-10.16-10.33A30.53,30.53,0,0,1,615,85a30.93,30.93,0,0,1,3.63-15.18,26.42,26.42,0,0,1,10.11-10.33,28.91,28.91,0,0,1,14.73-3.74,29.4,29.4,0,0,1,15,3.74,26.42,26.42,0,0,1,10.11,10.33A31,31,0,0,1,672.16,85a31,31,0,0,1-3.62,15.18,26.55,26.55,0,0,1-10,10.33A28.67,28.67,0,0,1,643.81,114.25Zm0-11.5a14.66,14.66,0,0,0,8.2-2.29,15.77,15.77,0,0,0,5.53-6.25,20.09,20.09,0,0,0,2-9.21,20.09,20.09,0,0,0-2-9.21,15.51,15.51,0,0,0-5.64-6.25,15.22,15.22,0,0,0-8.32-2.29,15,15,0,0,0-8.26,2.29,15.66,15.66,0,0,0-5.58,6.25,20.09,20.09,0,0,0-2,9.21,19.6,19.6,0,0,0,2.07,9.21,15.84,15.84,0,0,0,5.69,6.25A15.22,15.22,0,0,0,643.81,102.75Z"></path><path class="cls-1" d="M678.86,112.91V57.09h11.72l.78,10.27v45.55Zm37.85-28.58c0-4.47-.51-7.91-1.51-10.33A9.7,9.7,0,0,0,711,68.92a13.63,13.63,0,0,0-6.42-1.45q-6.25-.1-9.71,4.13t-3.47,12.17h-4.68a40.15,40.15,0,0,1,2.56-15.13,20.76,20.76,0,0,1,7.37-9.6A19.68,19.68,0,0,1,708,55.75a22.88,22.88,0,0,1,11.44,2.68,17.29,17.29,0,0,1,7.26,8.32q2.5,5.64,2.51,14.68v2.9Zm0,28.58V84.33h12.5v28.58Z"></path><path class="cls-2" d="M203.59,138v-5.82h34.34V138H224.19v38.4h-6.8V138Z"></path><path class="cls-2" d="M239.18,176.39V143.21h6.32v5.34h.36a8.12,8.12,0,0,1,3.2-4.27,9.09,9.09,0,0,1,5.2-1.55c.41,0,.89,0,1.42.05a12.67,12.67,0,0,1,1.34.13v6.24a8.25,8.25,0,0,0-1.37-.24,17.24,17.24,0,0,0-2.05-.12,8.62,8.62,0,0,0-4.06,1,7,7,0,0,0-2.82,2.63,7.28,7.28,0,0,0-1,3.87v20.15Z"></path><path class="cls-2" d="M269.61,177.13a13.51,13.51,0,0,1-5.7-1.17,9.4,9.4,0,0,1-4-3.43,9.8,9.8,0,0,1-1.48-5.52,8.94,8.94,0,0,1,1.08-4.63,8.12,8.12,0,0,1,2.94-2.88,15.3,15.3,0,0,1,4.12-1.6,39.82,39.82,0,0,1,4.62-.8l4.78-.58a7.18,7.18,0,0,0,2.71-.74,1.8,1.8,0,0,0,.88-1.68v-.18a6.42,6.42,0,0,0-.71-3.14,4.87,4.87,0,0,0-2.13-2,8,8,0,0,0-3.51-.69,9.53,9.53,0,0,0-3.73.66,7.37,7.37,0,0,0-2.52,1.71,7.59,7.59,0,0,0-1.44,2.17L259.34,151a11.57,11.57,0,0,1,3.23-4.77,13.38,13.38,0,0,1,4.84-2.65,19.39,19.39,0,0,1,5.64-.83,20.54,20.54,0,0,1,4.27.48,12.85,12.85,0,0,1,4.25,1.72,9.43,9.43,0,0,1,3.23,3.5,12.15,12.15,0,0,1,1.25,5.88v22h-6.32v-4.54h-.33a9.32,9.32,0,0,1-1.93,2.49,10,10,0,0,1-3.22,2A12.45,12.45,0,0,1,269.61,177.13Zm1.45-5.25a9.32,9.32,0,0,0,4.57-1,7.32,7.32,0,0,0,2.91-2.76,7.13,7.13,0,0,0,1-3.65v-4.24a3.37,3.37,0,0,1-1.35.64c-.66.18-1.42.35-2.27.5s-1.67.27-2.47.37l-1.95.24a15.26,15.26,0,0,0-3.37.8,5.94,5.94,0,0,0-2.44,1.6,4.09,4.09,0,0,0-.9,2.76,4.23,4.23,0,0,0,.81,2.64,4.91,4.91,0,0,0,2.22,1.61A9.07,9.07,0,0,0,271.06,171.88Z"></path><path class="cls-2" d="M306.41,177.08a15.32,15.32,0,0,1-8.16-2.14,14.56,14.56,0,0,1-5.4-6,19.73,19.73,0,0,1-1.93-9,20,20,0,0,1,1.93-9,14.53,14.53,0,0,1,5.4-6,15.32,15.32,0,0,1,8.16-2.14,17.1,17.1,0,0,1,4.84.67,14.21,14.21,0,0,1,4.08,1.93,12,12,0,0,1,3.09,3.09,13.44,13.44,0,0,1,1.89,4.11l-6.21,1.48a7.84,7.84,0,0,0-1-2.33,7.51,7.51,0,0,0-1.64-1.82,7.13,7.13,0,0,0-2.23-1.19,8.76,8.76,0,0,0-2.78-.42,7.67,7.67,0,0,0-5,1.59,9.56,9.56,0,0,0-2.94,4.23,17,17,0,0,0-1,5.85,16.76,16.76,0,0,0,1,5.8,9.47,9.47,0,0,0,2.94,4.2,7.72,7.72,0,0,0,5,1.57,8.69,8.69,0,0,0,2.82-.43,7.6,7.6,0,0,0,2.29-1.21,7.15,7.15,0,0,0,1.69-1.9,7.87,7.87,0,0,0,1-2.45l6.17,1.48a12.71,12.71,0,0,1-1.87,4.2,12.58,12.58,0,0,1-3.1,3.16,13.64,13.64,0,0,1-4.11,2A16.82,16.82,0,0,1,306.41,177.08Z"></path><path class="cls-2" d="M325.18,176.39V132.17h6.53v44.22Zm6-11.19v-8h1.1l13.09-14h7.84l-15,16.06h-1.1Zm14.87,11.19-11.78-15.67,4.51-4.63,15.35,20.3Z"></path><path class="cls-2" d="M360.09,138.13a4.06,4.06,0,0,1-2.9-1.14,3.62,3.62,0,0,1-1.2-2.71,3.67,3.67,0,0,1,1.2-2.77,4.31,4.31,0,0,1,5.8,0,3.62,3.62,0,0,1,1.22,2.77A3.58,3.58,0,0,1,363,137,4.12,4.12,0,0,1,360.09,138.13Zm-3.3,38.26V143.21h6.53v33.18Z"></path><path class="cls-2" d="M376.27,156.74v19.65h-6.53V143.21H376l.06,8.13h-.68a12.65,12.65,0,0,1,4.21-6.5,10.94,10.94,0,0,1,6.68-2.05,11.8,11.8,0,0,1,5.9,1.43,9.8,9.8,0,0,1,3.95,4.2,15,15,0,0,1,1.43,6.9v21.07H391V156.12a8,8,0,0,0-1.87-5.61,6.69,6.69,0,0,0-5.14-2,7.94,7.94,0,0,0-3.94,1,7,7,0,0,0-2.77,2.8A9.24,9.24,0,0,0,376.27,156.74Z"></path><path class="cls-2" d="M417.79,189.51a20.13,20.13,0,0,1-6.65-1,13.46,13.46,0,0,1-4.64-2.61,11.68,11.68,0,0,1-2.78-3.62l5.47-2.58a12.83,12.83,0,0,0,1.58,2,8.32,8.32,0,0,0,2.69,1.8,10.94,10.94,0,0,0,4.33.74,9.86,9.86,0,0,0,6.16-1.8q2.35-1.8,2.36-5.62v-6.47h-.56a15.6,15.6,0,0,1-1.65,2.37,8.73,8.73,0,0,1-2.94,2.21,11,11,0,0,1-4.91.94,13.73,13.73,0,0,1-7.05-1.84,13,13,0,0,1-5-5.46,19.49,19.49,0,0,1-1.84-8.91,20.77,20.77,0,0,1,1.82-9.06,13.8,13.8,0,0,1,5-5.81,13,13,0,0,1,7.14-2,10.68,10.68,0,0,1,5,1,9.32,9.32,0,0,1,3,2.39,18.74,18.74,0,0,1,1.65,2.42h.47v-5.4h6.38v33.66a12.22,12.22,0,0,1-2,7.17,11.6,11.6,0,0,1-5.37,4.14A20.9,20.9,0,0,1,417.79,189.51Zm0-19a8.25,8.25,0,0,0,4.71-1.29,8,8,0,0,0,2.89-3.74,15.79,15.79,0,0,0,1-5.84,16.22,16.22,0,0,0-1-5.87,8.74,8.74,0,0,0-2.89-3.95,7.68,7.68,0,0,0-4.71-1.43,7.56,7.56,0,0,0-4.8,1.5,9.12,9.12,0,0,0-2.91,4,15.62,15.62,0,0,0-1,5.71,15.14,15.14,0,0,0,1,5.69,8.23,8.23,0,0,0,2.92,3.81A8.13,8.13,0,0,0,417.76,170.46Z"></path><path class="cls-2" d="M453.19,176.39V132.17H481V138H460v13.17h19.56V157H460v13.63h21.26v5.81Z"></path><path class="cls-2" d="M484.27,176.39l13-19.56,0,5L485,143.21h7.36l3.74,6c1,1.67,1.93,3.26,2.72,4.78s1.57,3,2.38,4.43h-3A49.1,49.1,0,0,0,500.5,154a41.41,41.41,0,0,1,2.67-4.78l3.83-6h7.24l-12.43,18.85v-4.9l12.94,19.23h-7.33L503,169.33c-1-1.64-1.92-3.21-2.7-4.69s-1.56-2.92-2.37-4.31h3c-.79,1.39-1.55,2.83-2.26,4.31a47.54,47.54,0,0,1-2.61,4.69l-4.51,7.06Z"></path><path class="cls-2" d="M518.46,188.8V143.21h6.35v5.4h.54a21.46,21.46,0,0,1,1.65-2.4,9.13,9.13,0,0,1,2.93-2.39,10.43,10.43,0,0,1,5-1,12.84,12.84,0,0,1,7.1,2,13.79,13.79,0,0,1,5,5.85,21.55,21.55,0,0,1,1.81,9.23,21.86,21.86,0,0,1-1.78,9.19,13.79,13.79,0,0,1-4.92,5.9,12.66,12.66,0,0,1-7.16,2.07,10.44,10.44,0,0,1-4.92-1,9.41,9.41,0,0,1-3-2.39,18.33,18.33,0,0,1-1.68-2.43H525v17.6Zm15-17.3a7.42,7.42,0,0,0,4.78-1.55,9.23,9.23,0,0,0,2.89-4.18,17.05,17.05,0,0,0,1-5.94,16.56,16.56,0,0,0-1-5.86,9.18,9.18,0,0,0-2.87-4.11,7.51,7.51,0,0,0-4.8-1.52,7.68,7.68,0,0,0-4.72,1.44,8.85,8.85,0,0,0-2.91,4,19,19,0,0,0,0,12.11,9.12,9.12,0,0,0,2.92,4.11A7.47,7.47,0,0,0,533.48,171.5Z"></path><path class="cls-2" d="M568,177.08a16.33,16.33,0,0,1-8.45-2.11A14.06,14.06,0,0,1,554,169a19.82,19.82,0,0,1-1.92-9,20.4,20.4,0,0,1,1.89-9,14.44,14.44,0,0,1,5.33-6.06,14.69,14.69,0,0,1,8.07-2.19,16.41,16.41,0,0,1,5.49.94,13.35,13.35,0,0,1,4.75,2.92A13.81,13.81,0,0,1,581,151.8a21.23,21.23,0,0,1,1.23,7.67v2.32H555.78v-4.87h23.09l-3.06,1.6a14.23,14.23,0,0,0-.95-5.38,8,8,0,0,0-2.8-3.64,7.9,7.9,0,0,0-4.65-1.3,8.19,8.19,0,0,0-4.72,1.33,8.58,8.58,0,0,0-3,3.52,11.09,11.09,0,0,0-1,4.76v3.33a12.9,12.9,0,0,0,1.18,5.77,8.11,8.11,0,0,0,3.28,3.56,9.68,9.68,0,0,0,4.89,1.2,10,10,0,0,0,3.33-.52,6.91,6.91,0,0,0,2.57-1.57,6.76,6.76,0,0,0,1.64-2.6l6.15,1.46A11.39,11.39,0,0,1,579,173a12.74,12.74,0,0,1-4.69,3A17.61,17.61,0,0,1,568,177.08Z"></path><path class="cls-2" d="M587,176.39V143.21h6.33v5.34h.35a8.14,8.14,0,0,1,3.21-4.27,9,9,0,0,1,5.19-1.55c.42,0,.89,0,1.43.05a12.45,12.45,0,0,1,1.33.13v6.24a7.87,7.87,0,0,0-1.36-.24,17.49,17.49,0,0,0-2.05-.12,8.66,8.66,0,0,0-4.07,1,7.08,7.08,0,0,0-2.82,2.63,7.37,7.37,0,0,0-1,3.87v20.15Z"></path><path class="cls-2" d="M623.28,143.21v5.31h-18v-5.31Zm-13.15-7.9h6.53v32.12a4.23,4.23,0,0,0,.85,2.92,3.54,3.54,0,0,0,2.77.94,9.9,9.9,0,0,0,1.34-.12c.55-.08,1-.16,1.42-.24l1.16,5.23a11.73,11.73,0,0,1-2.23.51,17,17,0,0,1-2.34.17,9.9,9.9,0,0,1-7-2.33,8.53,8.53,0,0,1-2.49-6.55Z"></path><path class="cls-2" d="M638.72,177.08a18.4,18.4,0,0,1-6.4-1,11.26,11.26,0,0,1-4.6-3.08,10.47,10.47,0,0,1-2.39-5l6.14-1.27a6.32,6.32,0,0,0,2.56,3.82,8.31,8.31,0,0,0,4.75,1.25,8.54,8.54,0,0,0,5-1.32,3.8,3.8,0,0,0,1.87-3.16,3.41,3.41,0,0,0-1.14-2.64,7.6,7.6,0,0,0-3.52-1.55l-5.58-1.27a13.57,13.57,0,0,1-6.88-3.33,7.94,7.94,0,0,1-2.26-5.84,8.46,8.46,0,0,1,1.66-5.2,10.85,10.85,0,0,1,4.54-3.45,16.82,16.82,0,0,1,6.65-1.24,16.38,16.38,0,0,1,6.15,1,10.68,10.68,0,0,1,4.14,2.91,11.42,11.42,0,0,1,2.27,4.34l-5.85,1.27a7.2,7.2,0,0,0-2.17-3.07,6.71,6.71,0,0,0-4.48-1.32,7.92,7.92,0,0,0-4.51,1.21,3.63,3.63,0,0,0-1.81,3.09,3.36,3.36,0,0,0,1.2,2.69A9.46,9.46,0,0,0,638,156.6l5.35,1.18a13.77,13.77,0,0,1,6.82,3.27,7.69,7.69,0,0,1,2.23,5.7,8.7,8.7,0,0,1-1.74,5.35,11.44,11.44,0,0,1-4.81,3.65A17.89,17.89,0,0,1,638.72,177.08Z"></path><path class="cls-2" d="M662,176.84a4.35,4.35,0,0,1-4.39-4.39,4.17,4.17,0,0,1,1.27-3.08,4.46,4.46,0,0,1,6.21,0,4.17,4.17,0,0,1,1.27,3.08,4.35,4.35,0,0,1-4.36,4.39Z"></path><path class="cls-1" d="M27.16,105.31a83.52,83.52,0,0,0,.64,10.47q3.47-1.22,7-2.38c-2.15-18.28,2.56-34.94,14.43-49.6s27.31-22.89,46.1-24.48a66.66,66.66,0,0,1,71.75,56.77c5.24,35.26-19.1,68.92-54.25,75.08a66.93,66.93,0,0,1-20.42.52c-.82,2.31-1.61,4.63-2.43,6.94a3.67,3.67,0,0,0,.43.09c21.85,3,41.36-2.52,58.29-16.61,12.92-10.75,21.42-24.43,24.61-41,5.65-29.28-3-53.92-25.83-73.09-15.19-12.76-33.14-17.86-52.87-16.3C61.93,34.38,34.26,59.65,28.41,92A81.52,81.52,0,0,0,27.16,105.31Z"></path><path class="cls-1" d="M46.59,109.39l7-2.38c-1-24.34,15.32-45.25,39.89-49.85,25.52-4.81,51.58,13.57,55.61,39.25,4.08,25.83-11.62,49.29-37,55.27a46.84,46.84,0,0,1-13,1.07c-.84,2.38-1.67,4.78-2.54,7.16,1.68.13,3.29.16,4.49.23a55.9,55.9,0,0,0,55.71-46.92c4.71-29.53-15.57-57.95-45.08-63.16A55.62,55.62,0,0,0,47,96.09,54.37,54.37,0,0,0,46.59,109.39Z"></path><path class="cls-2" d="M61.52,103.12a7.42,7.42,0,0,0,.11,1.2c2.43-.84,4.85-1.68,7.3-2.5,1-12.8,7.3-22.21,19.17-27.6,19.47-8.86,42.27,4.08,44.94,25.29a32.09,32.09,0,0,1-28,36.15c-.89,2.52-1.77,5-2.65,7.55a39.54,39.54,0,0,0,4.78-78.58c-2-.31-4.08-.36-5.83-.47a40.27,40.27,0,0,0-33,17.27,19.92,19.92,0,0,0-1.16,1.77c-.34.54-.68,1.11-1,1.7a37.24,37.24,0,0,0-3.62,9.24c-.14.52-.25,1-.36,1.54A35.17,35.17,0,0,0,61.52,103.12Z"></path><path class="cls-1" d="M61.32,104.34v.07a1,1,0,0,1,.31-.09c2.43-.84,4.85-1.68,7.3-2.5l26.7-9a22.18,22.18,0,0,1,2.31-.63l.16-.05,2.6-.32a13.73,13.73,0,0,1,10.54,4.63c2.52,2.79,5,7.64,2.43,14.86-2.86,8.14-5.74,16.25-8.59,24.39-.89,2.52-1.77,5-2.65,7.55-.23.63-.46,1.29-.68,1.92h.36a40.79,40.79,0,1,0-33.72-63.7,19.92,19.92,0,0,0-1.16,1.77c-.34.54-.68,1.11-1,1.7a41.1,41.1,0,0,0-3.62,9.24c-.14.52-.25,1-.36,1.54A39.89,39.89,0,0,0,61.32,104.34Z"></path><circle class="cls-3" cx="101.85" cy="104.46" r="30.35"></circle><circle class="cls-3" cx="101.85" cy="104.67" r="24.6"></circle><circle class="cls-3" cx="102.11" cy="104.46" r="17.82"></circle><path class="cls-2" d="M105.32,108.2c-1.64,5.07-14.41,43.79-18.86,57.36-1.12,3.44-2.82,6-6.87,5.88s-5.67-2.67-6.52-6.23c-1.77-7.36-3.8-14.66-5.44-22.05-.65-3-2.16-4.3-5-5-7.51-1.75-14.95-3.76-22.45-5.55-3.36-.8-5.57-2.57-5.79-6.12-.23-3.74,1.86-5.79,5.29-6.91,18.83-6.17,37.62-12.43,56.45-18.6C101.38,99.3,106.9,102.2,105.32,108.2Z"></path><path class="cls-2" d="M27.21,179.5c-.84-.08-1.28-1-.75-2.22a5.94,5.94,0,0,1,1.44-1.63Q40,163.56,52.1,151.51c.93-.93,2-2.84,3.53-1.11,1.25,1.39-.35,2.41-1.25,3.32Q42.19,166,30,178.15A3.18,3.18,0,0,1,27.21,179.5Z"></path><path class="cls-2" d="M48.61,143.81c.08,1-.62,1.54-1.22,2.14-4.08,4.08-8.14,8.16-12.24,12.21-.84.83-1.73,2-3.06.72s0-2.17.79-3q6.21-6.27,12.47-12.49c.62-.62,1.24-1.19,2.23-.93A1.31,1.31,0,0,1,48.61,143.81Z"></path><path class="cls-2" d="M63.39,158.51a3,3,0,0,1-1.29,2.32c-4,4-7.94,8-12,11.92-.89.87-1.83,2.39-3.3.82-1.3-1.39.17-2.19.95-3,4-4.09,8.12-8.14,12.18-12.2.69-.69,1.35-1.49,2.51-1.1A1.33,1.33,0,0,1,63.39,158.51Z"></path></svg>